<svg width="355" height="118" viewBox="0 0 355 118" fill="none" xmlns="http://www.w3.org/2000/svg">
<path d="M7.6 95V43.035L5.7 33.535L7.6 27.835H26.695L45.885 51.775L50.445 59.66H51.395V27.835H73.34V33.535L72.39 43.035V95H53.485L29.64 62.51H28.69V68.21L29.64 95H7.6ZM86.643 95L84.743 89.3L86.643 79.8V27.74H135.568L140.318 30.59L134.048 46.74L125.498 45.79H107.733V53.39H131.198V69.065H118.088L107.733 68.115V76.95H134.048L145.353 88.92L139.748 95H86.643ZM146.801 95L164.091 60.895L147.751 33.44V27.74H171.596L181.096 51.585H182.996L192.401 27.74H217.101L199.716 61.18L216.151 89.3V95H192.781L182.996 72.295H181.096L170.836 95H146.801ZM254.486 95.95C243.403 95.95 235.423 93.7333 230.546 89.3C225.67 84.8033 223.231 77.615 223.231 67.735V43.035L223.326 33.44L223.231 27.74H244.511V62.985C244.511 65.8983 244.733 68.495 245.176 70.775C245.62 72.9917 246.57 74.7333 248.026 76C249.483 77.2667 251.7 77.9 254.676 77.9C257.716 77.9 259.965 77.33 261.421 76.19C262.878 75.05 263.828 73.3717 264.271 71.155C264.715 68.9383 264.936 66.215 264.936 62.985V27.74H285.741V67.735C285.741 74.195 284.696 79.515 282.606 83.695C280.516 87.8117 277.191 90.8833 272.631 92.91C268.071 94.9367 262.023 95.95 254.486 95.95ZM321.349 95.95C317.865 95.95 314.414 95.6333 310.994 95C307.637 94.43 304.66 93.67 302.064 92.72C299.467 91.77 297.599 90.82 296.459 89.87V70.015C298.865 71.345 301.557 72.5483 304.534 73.625C307.51 74.7017 310.519 75.5567 313.559 76.19C316.662 76.76 319.607 77.045 322.394 77.045C326.257 77.045 328.189 76.1583 328.189 74.385C328.189 73.4983 327.777 72.77 326.954 72.2C326.194 71.5667 324.832 70.9017 322.869 70.205C320.905 69.5083 318.119 68.6217 314.509 67.545C310.329 66.215 306.75 64.8217 303.774 63.365C300.86 61.9083 298.612 60.04 297.029 57.76C295.509 55.48 294.749 52.44 294.749 48.64C294.749 42.0533 297.377 36.765 302.634 32.775C307.89 28.785 315.585 26.79 325.719 26.79C327.745 26.79 329.899 26.885 332.179 27.075C334.522 27.2017 336.39 27.3917 337.784 27.645L349.469 35.53L344.719 49.97L320.399 43.795C317.865 43.795 316.599 44.65 316.599 46.36C316.599 47.69 317.39 48.7983 318.974 49.685C320.62 50.5083 323.565 51.6483 327.809 53.105C333.445 55.005 337.91 56.9683 341.204 58.995C344.56 60.9583 346.967 63.2067 348.424 65.74C349.88 68.2733 350.609 71.2817 350.609 74.765C350.609 81.0983 348.17 86.2283 343.294 90.155C338.417 94.0183 331.102 95.95 321.349 95.95Z" fill="#92AAFF"/>
<path d="M148 33.5V28H171.5L181 52H183L199.5 61.5L215.676 89.5V94.5H193L183 72H181L176 82.5L164 60.5L148 33.5Z" fill="#1E1E1E" stroke="#60DDE5"/>
</svg>
