<svg width="154" height="51" viewBox="0 0 154 51" fill="none" xmlns="http://www.w3.org/2000/svg">
<path d="M3.28 41V18.573L2.46 14.473L3.28 12.013H11.521L19.803 22.345L21.771 25.748H22.181V12.013H31.652V14.473L31.242 18.573V41H23.083L12.792 26.978H12.382V29.438L12.792 41H3.28ZM37.3933 41L36.5733 38.54L37.3933 34.44V11.972H58.5083L60.5583 13.202L57.8523 20.172L54.1623 19.762H46.4953V23.042H56.6223V29.807H50.9643L46.4953 29.397V33.21H57.8523L62.7313 38.376L60.3123 41H37.3933ZM63.3562 41L70.8182 26.281L63.7662 14.432V11.972H74.0572L78.1572 22.263H78.9772L83.0362 11.972H93.6962L86.1932 26.404L93.2862 38.54V41H83.2002L78.9772 31.201H78.1572L73.7292 41H63.3562ZM109.831 41.41C105.048 41.41 101.604 40.4533 99.499 38.54C97.3943 36.5993 96.342 33.497 96.342 29.233V18.573L96.383 14.432L96.342 11.972H105.526V27.183C105.526 28.4403 105.622 29.561 105.813 30.545C106.004 31.5017 106.414 32.2533 107.043 32.8C107.672 33.3467 108.628 33.62 109.913 33.62C111.225 33.62 112.195 33.374 112.824 32.882C113.453 32.39 113.863 31.6657 114.054 30.709C114.245 29.7523 114.341 28.577 114.341 27.183V11.972H123.32V29.233C123.32 32.021 122.869 34.317 121.967 36.121C121.065 37.8977 119.63 39.2233 117.662 40.098C115.694 40.9727 113.084 41.41 109.831 41.41ZM138.687 41.41C137.184 41.41 135.694 41.2733 134.218 41C132.77 40.754 131.485 40.426 130.364 40.016C129.244 39.606 128.437 39.196 127.945 38.786V30.217C128.984 30.791 130.146 31.3103 131.43 31.775C132.715 32.2397 134.013 32.6087 135.325 32.882C136.665 33.128 137.936 33.251 139.138 33.251C140.806 33.251 141.639 32.8683 141.639 32.103C141.639 31.7203 141.462 31.406 141.106 31.16C140.778 30.8867 140.191 30.5997 139.343 30.299C138.496 29.9983 137.293 29.6157 135.735 29.151C133.931 28.577 132.387 27.9757 131.102 27.347C129.845 26.7183 128.875 25.912 128.191 24.928C127.535 23.944 127.207 22.632 127.207 20.992C127.207 18.1493 128.342 15.867 130.61 14.145C132.879 12.423 136.2 11.562 140.573 11.562C141.448 11.562 142.377 11.603 143.361 11.685C144.373 11.7397 145.179 11.8217 145.78 11.931L150.823 15.334L148.773 21.566L138.277 18.901C137.184 18.901 136.637 19.27 136.637 20.008C136.637 20.582 136.979 21.0603 137.662 21.443C138.373 21.7983 139.644 22.2903 141.475 22.919C143.908 23.739 145.835 24.5863 147.256 25.461C148.705 26.3083 149.744 27.2787 150.372 28.372C151.001 29.4653 151.315 30.7637 151.315 32.267C151.315 35.0003 150.263 37.2143 148.158 38.909C146.054 40.5763 142.897 41.41 138.687 41.41Z" fill="#92AAFF"/>
<path d="M64 14.5V12H74L78 22.5H79L86 26.5L93 38.5V41H83.5L79 31H78L71 26L64 14.5Z" fill="#0D0D0D" stroke="#60DDE5"/>
</svg>
